<svg>
	<symbol id="heart" viewBox="0 0 19 17" xmlns="http://www.w3.org/2000/svg">
<path d="M17.2422 1.46484C15.3086 -0.1875 12.4609 0.128906 10.668 1.95703L10 2.66016L9.29688 1.95703C7.53906 0.128906 4.65625 -0.1875 2.72266 1.46484C0.507812 3.36328 0.402344 6.73828 2.37109 8.77734L9.19141 15.8086C9.61328 16.2656 10.3516 16.2656 10.7734 15.8086L17.5938 8.77734C19.5625 6.73828 19.457 3.36328 17.2422 1.46484Z" />
	</symbol>

   <symbol xmlns="http://www.w3.org/2000/svg" viewBox="0 0 17 16" id="close">
    <path d="M10.414 8l6.243-6.23a1.034 1.034 0 000-1.466 1.04 1.04 0 00-1.468 0l-6.244 6.23L2.702.304a1.04 1.04 0 00-1.469 0 1.034 1.034 0 000 1.466L7.477 8l-6.244 6.23a1.037 1.037 0 101.469 1.466l6.243-6.23 6.244 6.23a1.037 1.037 0 001.468 0 1.034 1.034 0 000-1.466L10.414 8z"></path>
  </symbol>

   <symbol xmlns="http://www.w3.org/2000/svg" viewBox="0 0 14 14" id="category-next">
    <path d="M5.938 1.094c-.313.312-.282.781 0 1.093l3.78 3.563H.75A.74.74 0 000 6.5v1c0 .438.313.75.75.75h8.969l-3.781 3.594a.814.814 0 000 1.094l.687.687c.313.281.781.281 1.063 0l6.093-6.094c.281-.281.281-.75 0-1.062L7.687.406c-.28-.281-.75-.281-1.062 0l-.688.688z"></path>
  </symbol>

  <symbol xmlns="http://www.w3.org/2000/svg" viewBox="0 0 14 14" id="category-prev">
    <path d="M8.063 12.906c.312-.312.28-.781 0-1.094L4.28 8.25h8.969A.74.74 0 0014 7.5v-1a.722.722 0 00-.75-.75H4.281l3.782-3.594a.814.814 0 000-1.094L7.375.375c-.313-.281-.781-.281-1.063 0L.22 6.469c-.281.281-.281.75 0 1.062l6.093 6.063c.282.281.75.281 1.063 0l.688-.688z"></path>
  </symbol>

  <symbol xmlns="http://www.w3.org/2000/svg" viewBox="0 0 54 56" id="unreleased-next">
    <path d="M25.223 23.094c-.312.312-.281.781 0 1.093l3.782 3.563h-8.97a.74.74 0 00-.75.75v1c0 .438.313.75.75.75h8.97l-3.782 3.594a.814.814 0 000 1.093l.688.688c.312.281.781.281 1.062 0l6.094-6.094c.281-.281.281-.75 0-1.062l-6.094-6.063c-.281-.281-.75-.281-1.062 0l-.688.688z"></path>
  </symbol>

   <symbol xmlns="http://www.w3.org/2000/svg" viewBox="0 0 54 56" id="unreleased-prev">
    <path d="M27.317 34.938c.313-.313.281-.782 0-1.094l-3.781-3.594h9a.74.74 0 00.75-.75v-1a.76.76 0 00-.75-.75h-9l3.781-3.563c.281-.312.313-.78 0-1.093l-.688-.688a.775.775 0 00-1.062 0L19.504 28.5a.684.684 0 000 1.031l6.063 6.094c.281.281.75.281 1.063 0l.687-.688z"></path>
  </symbol>

  <symbol xmlns="http://www.w3.org/2000/svg" viewBox="0 0 30 35" id="play">
    <path d="M28.281 14.527L4.906.715C2.98-.415.125.715.125 3.438v27.625c0 2.523 2.656 4.05 4.781 2.789l23.375-13.813c2.059-1.262 2.059-4.25 0-5.512z"></path>
  </symbol>

  <symbol xmlns="http://www.w3.org/2000/svg" viewBox="0 0 14 19" id="story-icon">
    <path d="M12.063.25H1.937C.989.25.25 1.023.25 1.938V18.25L7 14.312l6.75 3.938V1.937A1.71 1.71 0 0012.062.25zm0 15.082L7 12.379l-5.063 2.953V2.148c0-.105.07-.21.211-.21h9.704c.105 0 .21.105.21.21v13.184z"></path>
  </symbol>

  <symbol xmlns="http://www.w3.org/2000/svg" viewBox="0 0 190 32" id="partners-1">
    <path d="M59.702 3.2c-.438-1.435-1.97-2.207-3.394-1.766-1.422.442-2.189 1.987-1.75 3.421l7.004 21.738c.493 1.324 1.916 2.097 3.284 1.71 1.423-.441 2.298-1.93 1.86-3.365 0-.055-7.005-21.738-7.005-21.738zM48.866 6.786c-.438-1.434-1.97-2.207-3.393-1.765-1.423.441-2.19 1.986-1.752 3.42l7.005 21.738c.493 1.324 1.916 2.097 3.284 1.71 1.423-.44 2.298-1.93 1.86-3.365 0-.055-7.004-21.738-7.004-21.738z"></path>
    <path d="M68.567 21.241c1.423-.441 2.19-1.986 1.751-3.42-.437-1.435-1.97-2.207-3.393-1.766L45.31 23.062c-1.314.497-2.08 1.931-1.697 3.31.438 1.435 1.915 2.318 3.338 1.876.11 0 21.617-7.007 21.617-7.007z"></path>
    <path d="M49.796 27.366a179.933 179.933 0 005.144-1.71 183.86 183.86 0 00-1.696-5.187l-5.145 1.71 1.697 5.187zm10.891-3.586c1.97-.663 3.776-1.215 5.144-1.711a183.86 183.86 0 00-1.697-5.186l-5.144 1.71 1.697 5.186zm4.323-13.518c1.423-.441 2.189-1.986 1.751-3.42-.438-1.435-1.97-2.208-3.393-1.766l-21.562 7.062c-1.313.496-2.08 1.93-1.697 3.31.438 1.49 1.916 2.373 3.339 1.876.054 0 21.562-7.062 21.562-7.062z"></path>
    <path d="M46.294 16.386a180.282 180.282 0 005.144-1.71c-.657-1.986-1.204-3.807-1.697-5.186l-5.144 1.71 1.697 5.186zm10.836-3.531c1.97-.662 3.775-1.214 5.144-1.71-.657-1.986-1.204-3.807-1.697-5.186l-5.144 1.71 1.696 5.186zm33.273-3.917c.93.441 1.04.717.274 2.152-.767 1.49-.93 1.544-1.916 1.158-1.204-.496-2.681-.882-3.666-.882-1.588 0-2.627.551-2.627 1.434 0 2.869 9.139 1.324 9.139 7.503 0 3.09-2.627 5.131-6.567 5.131-2.08 0-4.652-.717-6.403-1.6-.876-.44-.93-.717-.164-2.206.656-1.27.875-1.435 1.806-1.049 1.532.662 3.393 1.159 4.706 1.159 1.478 0 2.408-.607 2.408-1.49 0-2.814-9.303-1.49-9.303-7.448 0-3.145 2.626-5.297 6.512-5.297 1.86.166 4.214.718 5.801 1.435zm7.388-7.283v22.952c0 .33-.383.717-.876.717h-2.408c-.547 0-.875-.386-.875-.717V1.655c0-1.158.328-1.214 2.08-1.214 1.97-.055 2.079.11 2.079 1.214z"></path>
    <path fill-rule="evenodd" clip-rule="evenodd" d="M114.756 24.386V14.51c0-4.303-2.9-6.841-7.497-6.841-2.08 0-4.378.662-6.02 1.765-.876.552-.876.828 0 2.207.93 1.38 1.094 1.435 1.97.938 1.094-.662 2.463-1.103 3.612-1.103 2.408 0 3.831 1.103 3.831 2.924v1.159c-1.15-.497-2.572-.773-4.105-.773-4.104 0-6.786 2.207-6.786 5.517 0 3.09 2.408 5.187 5.965 5.187 1.861 0 3.722-.773 4.98-2.207l-.054 1.048c-.055.552.328.938.875.938h2.354c.492 0 .875-.331.875-.883zm-8.537-2.207c-1.478 0-2.463-.772-2.463-1.93 0-1.435 1.478-2.539 3.667-2.539 1.04 0 2.244.166 3.174.552v1.545c-.93 1.49-2.572 2.372-4.378 2.372z"></path>
    <path d="M131.01 8.993c.876.497.876.773-.055 2.262-.875 1.38-1.04 1.49-2.025.993-.711-.386-1.915-.717-2.845-.717-3.01 0-4.981 1.986-4.981 5.02 0 3.146 1.971 5.242 4.981 5.242 1.039 0 2.353-.386 3.174-.883.875-.496 1.039-.496 1.97.883.821 1.27.821 1.545.055 2.097-1.314.938-3.448 1.655-5.309 1.655-5.527 0-9.249-3.586-9.249-8.938s3.722-8.883 9.304-8.883c1.751-.055 3.721.497 4.98 1.27zm18.114 14.124c.712.883.438 1.214-1.313 1.821-1.751.662-2.025.607-2.627-.22l-4.98-6.677-2.244 2.152v4.359c0 .33-.383.717-.875.717h-2.408c-.548 0-.876-.386-.876-.717V1.655c0-1.158.328-1.214 2.08-1.214 2.024 0 2.079.166 2.079 1.214v13.02l6.786-6.565c.766-.717 1.149-.662 2.518.221 1.477.938 1.587 1.214.875 1.931l-5.035 4.966 6.02 7.89z"></path>
  </symbol>  
	
  <symbol xmlns="http://www.w3.org/2000/svg" viewBox="0 0 190 32" id="partners-2">
    <path fill-rule="evenodd" clip-rule="evenodd" d="M57.76 27.35c-.553.056-1.114.114-1.688.184l-4.608-13.33v13.898c-1.44.142-2.736.33-4.128.567V3.19h3.84l5.232 14.465V3.19h4.08v23.826c-.901.148-1.803.24-2.728.335zM71.292 12.5c.954-.023 1.885-.046 2.588-.046v3.971c-1.776 0-3.888 0-5.424.095v5.91c.748-.046 1.5-.096 2.257-.146 1.622-.107 3.258-.216 4.895-.28v3.829l-11.184.85V3.19h11.184v3.97h-7.152v5.39c.81 0 1.835-.026 2.835-.05zm15.116-5.293h4.176s0-4.018.048-4.018H78.2v4.018h4.176V25.55c1.296-.047 2.688-.047 4.032-.047V7.207zm10.752 5.058h5.52v3.971h-5.52v9.03h-3.984V3.188h11.28V7.16H97.16v5.105zm18.058 9.692c-1.388-.08-2.787-.161-4.186-.19V3.19H107v22.313c3.696.094 7.296.283 10.896.52v-3.924c-.886-.037-1.78-.089-2.678-.14zm7.448 4.436h.001a56.39 56.39 0 012.621.196V3.19h-3.984v23.116c.449.033.904.06 1.362.088zm15.15-11.102l5.136-12.102h-4.464l-2.832 6.666-2.64-6.666h-4.32l4.704 11.96-5.184 11.63c.576.075 1.152.135 1.728.196.864.09 1.728.181 2.592.323l2.976-6.76 2.88 7.375c.538.082 1.07.171 1.6.26.984.163 1.962.326 2.96.449l-5.136-13.331z"></path>
  </symbol>

  <symbol xmlns="http://www.w3.org/2000/svg" viewBox="0 0 190 32" id="partners-3">
    <path fill-rule="evenodd" clip-rule="evenodd" d="M61.016 5.84c0 .99-.864 1.84-1.872 1.84s-1.872-.85-1.872-1.84c0-.99.864-1.84 1.872-1.84s1.872.85 1.872 1.84zm-1.872 3.349c-1.104 0-1.968.849-1.968 1.934s.864 1.934 1.968 1.934 1.968-.85 1.968-1.934c0-1.132-.864-1.934-1.968-1.934zm-2.016 7.122c0-1.085.912-1.98 2.016-1.98s2.064.895 2.016 1.98c0 1.085-.912 1.982-2.016 1.982s-2.016-.897-2.016-1.982zm2.016 3.255c-1.104 0-1.968.85-1.968 1.934 0 1.085.864 1.934 1.968 1.934s1.968-.85 1.968-1.934c0-1.038-.864-1.934-1.968-1.934zm-1.872 7.17c0-.99.864-1.84 1.872-1.84 1.056 0 1.872.85 1.872 1.84 0 .99-.864 1.84-1.872 1.84s-1.872-.85-1.872-1.84zm7.056-17.783c-1.2 0-2.208.99-2.208 2.17 0 1.179 1.008 2.17 2.208 2.17 1.2 0 2.208-.991 2.208-2.17 0-1.18-1.008-2.17-2.208-2.17zm-2.304 7.405c0-1.273 1.056-2.264 2.304-2.264 1.248 0 2.304.99 2.304 2.264 0 1.274-1.056 2.265-2.304 2.265-1.296 0-2.304-1.038-2.304-2.265zm2.304 2.972c-1.2 0-2.208.99-2.208 2.17s1.008 2.17 2.208 2.17c1.2 0 2.208-.99 2.208-2.17s-1.008-2.17-2.208-2.17zm2.784-3.019c0-1.415 1.2-2.5 2.544-2.5s2.448 1.085 2.544 2.5c0 1.415-1.104 2.5-2.544 2.5s-2.544-1.179-2.544-2.5zm-13.2-6.886c-.912 0-1.68.754-1.68 1.65 0 .897.768 1.651 1.68 1.651.912 0 1.68-.754 1.68-1.65 0-.897-.72-1.651-1.68-1.651zm-1.776 6.886c0-.99.768-1.745 1.776-1.745s1.776.755 1.776 1.745c0 .99-.768 1.746-1.776 1.746s-1.776-.755-1.776-1.746zm1.776 3.49c-.912 0-1.68.756-1.68 1.652 0 .896.768 1.65 1.68 1.65.912 0 1.68-.754 1.68-1.65 0-.896-.72-1.651-1.68-1.651zm-6.768-3.442c0-.85.672-1.51 1.536-1.51s1.536.66 1.536 1.51c0 .848-.672 1.509-1.536 1.509s-1.536-.66-1.536-1.51z"></path>
    <path d="M91.304 13.104c-.192 0-.336.189-.336.33V26.5c0 .189.192.33.336.33h1.584c.192 0 .336-.188.336-.33V13.434c0-.189-.192-.33-.336-.33h-1.584zm.864-5.519c-.864 0-1.536.66-1.536 1.51 0 .848.672 1.509 1.536 1.509s1.536-.66 1.536-1.51c0-.849-.72-1.509-1.536-1.509zm33.216 5.519c-.192 0-.336.189-.336.33V26.5c0 .189.192.33.336.33h1.584c.192 0 .336-.188.336-.33V13.434c0-.189-.192-.33-.336-.33h-1.584zm.768-5.519c-.864 0-1.536.66-1.536 1.51 0 .848.672 1.509 1.536 1.509s1.536-.66 1.536-1.51c0-.849-.672-1.509-1.536-1.509z"></path>
    <path fill-rule="evenodd" clip-rule="evenodd" d="M142.359 25.4a.3.3 0 01-.093.157c0 .094-.1.188-.3.141l.077.088a.078.078 0 01-.027.007h-.15l.35.424h.2l-.373-.43a.517.517 0 00.057-.03c.049-.026.107-.059.166-.059.1 0 .1-.094.1-.189 0-.038 0-.077-.007-.11zm-.693.393v-.566h.35c.1 0 .2 0 .25.094.059 0 .083.033.093.079.007-.032.007-.06.007-.08v-.093s0-.095-.1-.095c0 0-.1-.094-.2-.094h-.65v1.18h.2v-.425h.05z"></path>
    <path fill-rule="evenodd" clip-rule="evenodd" d="M140.792 25.65c0-.565.528-1.084 1.104-1.084.624 0 1.104.472 1.104 1.085 0 .566-.528 1.085-1.104 1.085-.576 0-1.104-.519-1.104-1.085zm.096 0c0 .567.432.992 1.008.992.528 0 1.008-.425 1.008-.991 0-.566-.432-.99-1.008-.99-.576 0-1.008.424-1.008.99z"></path>
    <path d="M104.504 15.226c.192 0 .336-.188.336-.33V13.34c0-.189-.192-.33-.336-.33h-3.408v-5c0-.19-.192-.33-.336-.33h-1.584c-.192 0-.336.188-.336.33v5h-1.68c-.192 0-.336.188-.336.33v1.556c0 .189.192.33.336.33h1.68v7.548c0 2.311 1.584 3.82 3.888 3.82h1.68c.192 0 .336-.188.336-.33v-1.556c0-.19-.192-.33-.336-.33h-1.44c-1.104 0-1.872-.755-1.872-1.934v-7.265h3.408v.047zm33.696 0c.192 0 .336-.188.336-.33V13.34c0-.189-.192-.33-.336-.33h-3.408v-5c0-.19-.192-.33-.336-.33h-1.584c-.192 0-.336.188-.336.33v5h-1.68c-.192 0-.336.188-.336.33v1.556c0 .189.192.33.336.33h1.68v7.548c0 2.311 1.584 3.82 3.888 3.82h1.68c.192 0 .336-.188.336-.33v-1.556c0-.19-.192-.33-.336-.33h-1.536c-1.104 0-1.872-.755-1.872-1.934v-7.265h3.456l.048.047zm-56.976 0v11.132c0 .19.192.33.336.33h1.584c.192 0 .336-.188.336-.33V15.226h3.744c.192 0 .336-.188.336-.33V13.34c0-.189-.192-.33-.336-.33H83.48v-2.925c0-1.18.864-1.981 1.872-1.981h1.872c.192 0 .336-.189.336-.33V6.217c0-.189-.192-.33-.336-.33h-1.776c-2.352 0-4.224 1.934-4.224 4.15v2.972h-1.68c-.192 0-.336.19-.336.33v1.557c0 .189.192.33.336.33h1.68z"></path>
    <path fill-rule="evenodd" clip-rule="evenodd" d="M115.112 12.585c1.872 0 3.648.755 4.896 2.075 1.248 1.321 1.92 3.16 1.92 5.19 0 5.046-3.504 7.31-6.864 7.31-3.408 0-6.864-2.217-6.864-7.31V6.122c0-.142.144-.33.336-.33h1.584c.144 0 .336.141.336.33v8.302c1.104-1.085 2.88-1.84 4.656-1.84zm-4.704 7.311c0 2.5 1.248 5.142 4.656 5.142 3.408 0 4.608-2.642 4.656-5.142 0-3.019-1.872-5.094-4.656-5.094s-4.656 2.028-4.656 5.094z"></path>
  </symbol>

   <symbol xmlns="http://www.w3.org/2000/svg" viewBox="0 0 190 32" id="partners-4">
    <path d="M70.627 11.126H59.435v3.3h7.959c-.398 4.65-4.278 6.7-7.909 6.7-4.676 0-8.754-3.7-8.754-8.85 0-5.05 3.88-8.95 8.754-8.95 3.78 0 5.969 2.4 5.969 2.4l2.288-2.4s-2.985-3.3-8.406-3.3c-6.914-.05-12.236 5.8-12.236 12.15 0 6.2 5.023 12.25 12.435 12.25 6.516 0 11.29-4.45 11.29-11.1 0-1.4-.198-2.2-.198-2.2z"></path>
    <path fill-rule="evenodd" clip-rule="evenodd" d="M71.87 16.476c0-4.2 3.283-7.8 7.86-7.8 3.78 0 7.859 2.7 7.908 7.9 0 4.6-3.482 7.85-7.809 7.85-4.775 0-7.958-3.65-7.958-7.95zm12.286.1c0-2.9-2.138-4.75-4.377-4.75-2.536 0-4.476 2-4.427 4.7 0 2.8 1.94 4.8 4.427 4.8 2.288 0 4.377-1.85 4.377-4.75zm4.825-.1c0-4.2 3.283-7.8 7.86-7.8 3.78 0 7.858 2.7 7.908 7.9 0 4.6-3.482 7.85-7.81 7.85-4.774 0-7.958-3.65-7.958-7.95zm12.286.1c0-2.9-2.138-4.75-4.377-4.75-2.537 0-4.477 2-4.427 4.7 0 2.8 1.94 4.8 4.427 4.8 2.288 0 4.377-1.85 4.377-4.75zm4.825 0c0-4.15 3.283-7.85 7.511-7.85 1.841 0 3.233.7 4.129 1.8v-1.35h3.283v14.15c0 5.55-3.184 8.2-7.362 8.2-3.83 0-5.969-2.35-7.014-4.6l3.035-1.25c.447 1 1.641 2.8 4.029 2.8 2.487 0 4.128-1.65 4.128-4.35v-1.55c-.945 1.05-2.089 1.9-4.327 1.9-3.582 0-7.412-3.2-7.412-7.9zm11.988.05c0-3-2.139-4.8-4.178-4.8-2.189 0-4.328 1.75-4.378 4.85 0 2.85 2.089 4.7 4.328 4.7 2.139 0 4.228-1.65 4.228-4.75zm10.346-.1c0-4.7 3.333-7.85 7.312-7.85 3.084 0 5.422 2.1 6.466 4.5l.547 1.3-10.495 4.4c.647 1.2 1.641 2.4 3.83 2.4 1.94 0 3.134-1.05 3.83-2.15l2.736 1.85c-1.194 1.6-3.283 3.45-6.566 3.45-3.93 0-7.66-2.95-7.66-7.9zm10.346-3.1c-.497-.95-1.492-1.7-2.935-1.7-2.238 0-4.427 2.35-4.029 4.65l6.964-2.95z"></path>
    <path d="M123.452 23.976h3.432V.776h-3.432v23.2z"></path>
  </symbol>

  <symbol xmlns="http://www.w3.org/2000/svg" viewBox="0 0 190 32" id="partners-5">
    <path fill-rule="evenodd" clip-rule="evenodd" d="M74.415 22.238a6.21 6.21 0 01.382 3.19c-.334 2.191-1.767 4.096-3.869 4.953-.764.333-1.576.476-2.435.476-.24 0-.526 0-.765-.047-1.003-.096-2.006-.43-3.009-1-1.194-.667-2.388-1.667-3.725-3.096-1.337 1.429-2.484 2.429-3.725 3.096-1.003.57-2.006.857-3.01 1-.119 0-.25.011-.381.023a4.386 4.386 0 01-.383.024c-.86 0-1.671-.143-2.435-.476-2.054-.857-3.582-2.714-3.917-4.953-.143-1.095 0-2.142.382-3.19.144-.428.287-.762.43-1.095a37.57 37.57 0 00.669-1.524l.048-.048c2.101-4.476 4.298-9 6.59-13.476l.096-.19c.239-.429.478-.905.717-1.381l.193-.307c.273-.435.558-.89.905-1.312 1.003-1.143 2.34-1.81 3.821-1.81 1.433 0 2.818.667 3.773 1.857.478.524.812 1.096 1.099 1.62.239.476.477.952.716 1.38l.096.19a291.5 291.5 0 016.59 13.477h.048c.191.476.43 1 .669 1.524.143.333.287.714.43 1.095zM97.484 8.571c0 1.096-.86 1.953-1.959 1.953a1.934 1.934 0 01-1.958-1.953c0-1.095.86-1.952 1.958-1.952 1.147.048 1.959.905 1.959 1.952zm-7.977 3.905v.476s-.907-1.19-2.913-1.19c-3.248 0-5.78 2.476-5.78 5.905 0 3.38 2.532 5.904 5.78 5.904 2.006 0 2.913-1.238 2.913-1.238v.524c0 .238.191.429.43.429h2.436V12.048h-2.436c-.286 0-.43.19-.43.428zm-2.435 8.381c1.098 0 2.006-.571 2.435-1.238v-4c-.43-.619-1.385-1.238-2.435-1.238-1.91 0-3.391 1.19-3.391 3.238s1.48 3.238 3.39 3.238zm9.886-8.81v11.191h-2.865v-11.19h2.865zm37.063.905s.955-1.19 2.913-1.19c3.248 0 5.779 2.476 5.779 5.857 0 3.381-2.531 5.905-5.779 5.905-2.006 0-2.913-1.238-2.913-1.238v.523a.427.427 0 01-.43.43h-2.436V6.666h2.866v6.285zm2.436 7.857a2.994 2.994 0 01-2.436-1.238v-4c.43-.619 1.385-1.238 2.436-1.238 1.91 0 3.391 1.19 3.391 3.238s-1.481 3.238-3.391 3.238zm-6.782 2.477v-6.667c0-1.905-.382-2.952-1.338-3.762-.859-.714-1.91-1.095-3.152-1.095-1.098 0-2.197.333-3.057 1.19v-.476a.427.427 0 00-.429-.428h-2.293v11.238h2.866v-7.81c.573-.667 1.48-1.095 2.34-1.095 1.576 0 2.197.714 2.197 2.571v6.334h2.866zm-17.242-11.524c-1.958 0-2.914 1.19-2.914 1.19V6.667h-2.865v16.571h2.436c.238 0 .429-.19.429-.428v-.524s.908 1.238 2.914 1.238c3.248 0 5.779-2.524 5.779-5.905.048-3.38-2.484-5.857-5.779-5.857zm-2.914 7.81a2.996 2.996 0 002.436 1.238c1.911 0 3.391-1.191 3.391-3.239 0-2.047-1.48-3.238-3.391-3.238-1.051 0-2.006.62-2.436 1.238v4zm-5.301-7.81c.86 0 1.337.143 1.337.143v2.666s-2.388-.81-3.868.905v7.81h-2.866V12.048h2.436c.239 0 .43.19.43.428v.476c.477-.619 1.623-1.19 2.531-1.19zm-43.272 12c-1.624-2.048-2.674-3.953-3.009-5.524-.143-.667-.19-1.286-.095-1.81.047-.476.239-.904.477-1.238a3.192 3.192 0 012.627-1.333c1.099 0 2.102.476 2.627 1.334.239.38.43.761.478 1.237.095.524.047 1.143-.096 1.81-.334 1.572-1.385 3.476-3.009 5.524zm9.218 4.905a4.288 4.288 0 002.723-3.477c.095-.81 0-1.523-.144-2.285a6.567 6.567 0 00-.19-.48c-.06-.143-.126-.298-.192-.473-.12-.238-.227-.488-.334-.738-.108-.25-.215-.5-.335-.738v-.047A344.693 344.693 0 0065.15 7.047l-.095-.19c-.24-.477-.478-.953-.717-1.382-.239-.476-.525-.952-.86-1.333a3.137 3.137 0 00-2.387-1.095c-.908 0-1.768.38-2.389 1.095a7.93 7.93 0 00-.86 1.333c-.238.476-.477.953-.716 1.381l-.095.19c-2.34 4.43-4.538 8.953-6.591 13.382l-.048.047c-.239.476-.478 1-.669 1.476-.143.334-.286.667-.382.953a4.508 4.508 0 00-.286 2.333c.19 1.524 1.241 2.857 2.722 3.476.669.238 1.433.381 2.245.286a6.205 6.205 0 002.292-.762c1.051-.619 2.15-1.524 3.392-2.905-1.959-2.428-3.2-4.666-3.63-6.619-.24-.904-.287-1.762-.144-2.523.144-.762.382-1.43.812-2.048.908-1.286 2.484-2.095 4.203-2.095 1.72 0 3.296.761 4.203 2.095.43.619.669 1.285.812 2.047.096.762.048 1.62-.143 2.524-.478 1.953-1.672 4.143-3.63 6.572 1.242 1.38 2.293 2.285 3.391 2.904.812.429 1.529.667 2.293.762.812.096 1.576 0 2.292-.285z"></path>
  </symbol>

  <symbol xmlns="http://www.w3.org/2000/svg" viewBox="0 0 190 32" id="partners-6">
    <path d="M62.045 6.733v11.28c0 3.761-1.624 5.324-5.445 5.324-3.82 0-5.445-1.563-5.445-5.323V6.244h-3.677c-.335 0-.478.147-.478.489V18.16c0 6.3 3.916 8.498 9.6 8.498 5.684 0 9.6-2.198 9.6-8.498V6.244h-3.678c-.286 0-.477.147-.477.489zm53.349 2.783c.287 0 .43-.097.525-.342l1.051-2.686c.048-.146 0-.244-.143-.244h-14.806c-1.385 0-1.911.44-1.911 1.416v17.484c0 .83.383 1.172 1.481 1.172h13.803c.287 0 .43-.097.525-.342l1.051-2.686c.048-.146 0-.244-.143-.244H104.17V19.48c0-1.22.669-1.807 2.436-1.807h5.493c.286 0 .429-.098.525-.342l1.003-2.588c.048-.147 0-.244-.143-.244h-9.362V9.516h11.272z"></path>
    <path fill-rule="evenodd" clip-rule="evenodd" d="M91.609 11.323c0 1.905-.669 3.516-2.293 4.396 2.197.634 3.2 2.637 3.153 5.03 0 4.004-2.77 5.567-6.64 5.567H75.562c-1.098 0-1.48-.342-1.48-1.172V7.66c0-.976.525-1.416 1.91-1.416h8.406c3.678 0 7.212.635 7.212 5.08zm-13.42-1.856h6.495c2.149 0 2.77.83 2.77 2.589 0 1.71-.621 2.588-2.77 2.588h-6.496V9.467zm7.259 13.626h-7.26V19.43c0-1.22.669-1.807 2.436-1.807h4.824c2.292 0 2.961.928 2.961 2.735 0 1.856-.669 2.735-2.961 2.735zm52.824-4.835l4.394 7.716c.095.098.095.342-.239.342h-3.725c-.276 0-.375-.135-.509-.32-.006-.006-.011-.014-.017-.022l-3.964-7.325h-3.63c-1.767 0-2.436.586-2.436 1.807v5.86h-3.582c-.334 0-.477-.146-.477-.488V7.66c0-.976.525-1.416 1.91-1.416h8.406c4.872 0 7.833 1.319 7.833 6.203 0 3.76-1.767 5.225-3.964 5.811zm-10.126-2.686h6.83c2.579 0 3.105-1.025 3.105-3.077 0-2.002-.574-3.028-3.105-3.028h-6.83v6.105z"></path>
  </symbol>

  <symbol xmlns="http://www.w3.org/2000/svg" viewBox="0 0 16 12" id="mail">
    <path d="M15.688 3.969c-.72.562-1.626 1.25-4.813 3.562C10.25 8 9.094 9.031 8 9.031c-1.125 0-2.25-1.031-2.906-1.5C1.906 5.22 1 4.531.28 3.97c-.125-.094-.281 0-.281.156V10.5c0 .844.656 1.5 1.5 1.5h13a1.5 1.5 0 001.5-1.5V4.125c0-.156-.188-.25-.313-.156zM8 8c.719.031 1.75-.906 2.281-1.281 4.156-3 4.469-3.282 5.406-4.032A.711.711 0 0016 2.095V1.5c0-.813-.688-1.5-1.5-1.5h-13A1.5 1.5 0 000 1.5v.594c0 .25.094.469.281.594.938.75 1.25 1.03 5.407 4.03C6.218 7.095 7.25 8.032 8 8z"></path>
  </symbol>

  <symbol xmlns="http://www.w3.org/2000/svg" viewBox="0 0 42 40" id="google">
    <rect opacity=".1" width="42" height="40" rx="20"></rect>
    <path d="M28.958 20.52c0-.5-.062-.874-.125-1.28h-7.375v2.656h4.375c-.156 1.156-1.312 3.343-4.375 3.343-2.656 0-4.812-2.187-4.812-4.906 0-4.343 5.125-6.343 7.875-3.687l2.125-2.032a7.516 7.516 0 00-5.188-2.03 7.729 7.729 0 00-7.75 7.75 7.709 7.709 0 007.75 7.75c4.47 0 7.5-3.126 7.5-7.563z"></path>
  </symbol>

   <symbol xmlns="http://www.w3.org/2000/svg" viewBox="0 0 42 40" id="twitter">
    <rect opacity=".1" width="42" height="40" rx="20"></rect>
    <path d="M27.677 17.083a6.952 6.952 0 001.625-1.687 6.15 6.15 0 01-1.875.5 3.206 3.206 0 001.438-1.813 6.932 6.932 0 01-2.063.813 3.281 3.281 0 00-2.406-1.032 3.28 3.28 0 00-3.281 3.282c0 .25.03.5.093.75a9.52 9.52 0 01-6.78-3.438 3.191 3.191 0 00-.438 1.656c0 1.125.562 2.125 1.468 2.72-.53-.032-1.062-.157-1.5-.407v.031a3.285 3.285 0 002.625 3.219c-.25.063-.562.125-.843.125-.22 0-.407-.031-.625-.063a3.265 3.265 0 003.062 2.282 6.597 6.597 0 01-4.062 1.406c-.282 0-.532-.031-.782-.063 1.438.938 3.157 1.47 5.032 1.47 6.03 0 9.312-4.97 9.312-9.313v-.438z"></path>
  </symbol>

  <symbol xmlns="http://www.w3.org/2000/svg" viewBox="0 0 40 40" id="inst">
    <rect opacity=".1" width="40" height="40" rx="20"></rect>
    <path d="M20.333 16.74c-2 0-3.593 1.625-3.593 3.593 0 2 1.593 3.594 3.593 3.594a3.594 3.594 0 003.594-3.594c0-1.968-1.625-3.593-3.594-3.593zm0 5.937a2.34 2.34 0 01-2.343-2.344c0-1.281 1.03-2.312 2.343-2.312a2.307 2.307 0 012.313 2.312c0 1.313-1.031 2.344-2.313 2.344zm4.563-6.063a.84.84 0 00-.844-.843.84.84 0 00-.844.843.84.84 0 00.844.844.84.84 0 00.844-.843zm2.375.844c-.063-1.125-.313-2.125-1.125-2.937-.813-.813-1.813-1.063-2.938-1.125-1.156-.063-4.625-.063-5.78 0-1.126.062-2.095.312-2.938 1.125-.813.812-1.063 1.812-1.125 2.937-.063 1.157-.063 4.625 0 5.782.062 1.125.312 2.093 1.125 2.937.843.813 1.812 1.063 2.937 1.125 1.156.063 4.625.063 5.781 0 1.125-.063 2.125-.313 2.938-1.125.812-.844 1.062-1.813 1.125-2.938.062-1.156.062-4.625 0-5.78zm-1.5 7c-.219.625-.719 1.094-1.313 1.344-.937.375-3.125.281-4.125.281-1.03 0-3.218.094-4.125-.281a2.37 2.37 0 01-1.343-1.344c-.375-.906-.282-3.093-.282-4.125 0-1-.093-3.187.282-4.125a2.41 2.41 0 011.343-1.312c.907-.375 3.094-.282 4.125-.282 1 0 3.188-.093 4.125.282.594.218 1.063.718 1.313 1.312.375.938.281 3.125.281 4.125 0 1.032.094 3.219-.281 4.125z"></path>
  </symbol>

  <symbol xmlns="http://www.w3.org/2000/svg" viewBox="0 0 40 40" id="in">
    <rect opacity=".1" width="40" height="40" rx="20"></rect>
    <path d="M26.333 13.333h-12.03c-.532 0-.97.469-.97 1.031v11.97c0 .562.438 1 .97 1h12.03c.532 0 1-.438 1-1v-11.97c0-.562-.468-1.03-1-1.03zm-8.78 12H15.49v-6.656h2.062v6.656zM16.52 17.74c-.688 0-1.219-.532-1.219-1.188a1.22 1.22 0 011.219-1.219c.656 0 1.187.563 1.187 1.219 0 .656-.53 1.188-1.187 1.188zm8.812 7.593H23.24v-3.25c0-.75 0-1.75-1.063-1.75-1.094 0-1.25.844-1.25 1.719v3.281h-2.062v-6.656h1.968v.906h.032c.28-.531.968-1.093 1.968-1.093 2.094 0 2.5 1.406 2.5 3.187v3.656z"></path>
  </symbol>

   <symbol xmlns="http://www.w3.org/2000/svg" viewBox="0 0 24 24" id="button-top3">
    <path d="M12 22A10 10 0 012 12 10 10 0 0112 2a10 10 0 0110 10 10 10 0 01-10 10m0-15l-5 5h3v4h4v-4h3l-5-5z"></path>
  </symbol>
</svg>